<svg width="445" height="312" viewBox="0 0 445 312" fill="none" xmlns="http://www.w3.org/2000/svg">
<path d="M167 304C246.529 304 311 239.529 311 160C311 80.471 246.529 16 167 16C87.471 16 23 80.471 23 160C23 239.529 87.471 304 167 304Z" fill="#F2F2F2"/>
<path d="M190.108 181.957C158.401 230.834 167.089 293 167.089 293C167.089 293 227.184 275.92 258.892 227.043C290.599 178.166 281.911 116 281.911 116C281.911 116 221.816 133.08 190.108 181.957Z" fill="#3F3D56"/>
<path d="M166.991 292C166.991 292 166.215 291.877 164.786 291.589C163.646 291.359 162.077 291.03 160.16 290.578C143.029 286.558 97.4849 272.969 67.7083 237.241C30.4401 192.503 32.0095 130 32.0095 130C32.0095 130 88.9938 139.216 126.543 179.391C128.17 181.117 129.753 182.907 131.292 184.759C163.72 223.685 166.743 276.06 166.983 289.008C167.016 290.948 166.991 292 166.991 292Z" fill="#222F65"/>
<path fill-rule="evenodd" clip-rule="evenodd" d="M143.892 181.957C175.599 230.834 166.911 293 166.911 293C166.911 293 106.816 275.92 75.1083 227.043C43.4009 178.166 52.0888 116 52.0888 116C52.0888 116 112.184 133.08 143.892 181.957Z" stroke="#3F3D56" stroke-width="2"/>
<path opacity="0.1" d="M167 290.056C166.16 291.071 165.419 291.938 164.81 292.648C163.459 294.191 162.693 295 162.693 295C162.693 295 161.763 293.828 160.199 291.632C151.61 279.631 123.984 236.959 126.117 187.668C126.232 185.084 126.422 182.528 126.685 180C128.307 181.733 129.886 183.53 131.42 185.39C163.747 224.471 166.761 277.056 167 290.056Z" fill="black"/>
<path d="M214.883 191.281C212.355 249.547 168.922 295 168.922 295C168.922 295 129.588 245.985 132.117 187.719C134.645 129.453 178.078 84 178.078 84C178.078 84 217.412 133.015 214.883 191.281Z" fill="#222F65"/>
<path d="M169 293L178 86" stroke="#3F3D56" stroke-width="2"/>
<path d="M222.5 312C345.383 312 445 305.732 445 298C445 290.268 345.383 284 222.5 284C99.6166 284 0 290.268 0 298C0 305.732 99.6166 312 222.5 312Z" fill="#3F3D56"/>
<path d="M37 293V237V293Z" fill="#3F3D56"/>
<path d="M37 293V237" stroke="#3F3D56" stroke-width="2"/>
<path d="M37 245C41.4183 245 45 241.418 45 237C45 232.582 41.4183 229 37 229C32.5817 229 29 232.582 29 237C29 241.418 32.5817 245 37 245Z" fill="#3F3D56"/>
<path d="M37 272C37 272 35.8837 247.368 13 250.232L37 272Z" fill="#3F3D56"/>
<path d="M228 202V46V202Z" fill="#3F3D56"/>
<path d="M228 202V46" stroke="#3F3D56" stroke-width="2"/>
<path d="M228 58C234.075 58 239 53.0751 239 47C239 40.9249 234.075 36 228 36C221.925 36 217 40.9249 217 47C217 53.0751 221.925 58 228 58Z" fill="#3F3D56"/>
<path d="M228 91C228 91 226.465 57.4116 195 61.3158L228 91Z" fill="#3F3D56"/>
<path d="M358.286 116L348.909 133.635C348.909 133.635 281.108 146.591 289.763 166.745C298.419 186.899 308.156 216.41 313.205 215.691C318.254 214.971 346.024 199.136 347.106 194.457C348.188 189.778 322.221 167.825 322.221 167.825L365.138 159.547C365.138 159.547 371.269 188.339 363.335 208.133C355.401 227.927 350.712 281.551 356.122 282.271C361.531 282.991 375.236 287.31 381.367 283.351C387.498 279.392 390.383 192.657 390.383 192.657C390.383 192.657 403.366 135.794 395.432 129.316C387.498 122.838 358.286 116 358.286 116Z" fill="#2F2E41"/>
<path d="M372.942 274.257C372.942 274.257 364.564 269.833 362.8 273.372C362.8 273.372 364.123 283.99 358.831 285.317C353.539 286.644 351.334 295.935 358.831 296.819C366.327 297.704 371.178 295.05 373.824 295.05C376.47 295.05 373.824 285.759 373.824 285.759L372.942 274.257Z" fill="#2F2E41"/>
<path d="M332.965 201.835C332.965 201.835 323.836 199.275 322.855 203.12C322.855 203.12 326.383 213.254 321.485 215.679C316.586 218.104 316.384 227.685 323.905 226.961C331.426 226.238 335.614 222.604 338.203 222.043C340.791 221.481 336.248 212.93 336.248 212.93L332.965 201.835Z" fill="#2F2E41"/>
<path d="M378.395 53.8587C378.395 53.8587 378.752 67.2887 376.258 68.3776C373.765 69.4665 390.15 76 390.15 76L393 70.9184C393 70.9184 389.794 52.7698 390.507 51.3179C391.219 49.866 378.395 53.8587 378.395 53.8587Z" fill="#9F616A"/>
<path d="M384 57C396.15 57 406 47.1503 406 35C406 22.8497 396.15 13 384 13C371.85 13 362 22.8497 362 35C362 47.1503 371.85 57 384 57Z" fill="#2F2E41"/>
<path d="M386 23C390.971 23 395 18.9706 395 14C395 9.02944 390.971 5 386 5C381.029 5 377 9.02944 377 14C377 18.9706 381.029 23 386 23Z" fill="#2F2E41"/>
<path d="M373.887 9C373.887 4.39243 377.389 0.529044 382 0.048663C381.687 0.016323 381.372 8.04062e-05 381.057 0C376.055 0 372 4.02944 372 9C372 13.9706 376.055 18 381.057 18C381.372 17.9999 381.687 17.9837 382 17.9513C377.389 17.471 373.887 13.6076 373.887 9Z" fill="#2F2E41"/>
<path d="M383 61C391.284 61 398 54.2843 398 46C398 37.7157 391.284 31 383 31C374.716 31 368 37.7157 368 46C368 54.2843 374.716 61 383 61Z" fill="#9F616A"/>
<path d="M394.251 65.8094C394.251 65.8094 381.297 69.7497 374.82 65.8094C368.343 61.869 352.87 73.3318 350.351 78.3468C347.832 83.3618 359.706 88.3768 359.706 88.3768C359.706 88.3768 356.316 98.0611 357.008 102.884C357.727 107.899 356.468 118.108 356.468 118.108C356.468 118.108 388.258 138.958 395.33 129.571C396.41 128.138 405.406 94.4664 405.406 94.4664L418 81.9289C418 81.9289 410.084 70.4661 405.406 69.3915C400.728 68.3169 394.251 65.8094 394.251 65.8094Z" fill="#D0CDE1"/>
<path d="M306.937 139C306.937 139 282.684 151.838 287.677 155.506C292.671 159.174 313 141.201 313 141.201L306.937 139Z" fill="#9F616A"/>
<path d="M402.922 129.939C402.922 129.939 391.927 122.222 390.156 126.08C388.386 129.939 402.195 138.627 405.103 135.227C408.01 131.827 402.922 129.939 402.922 129.939Z" fill="#9F616A"/>
<path d="M411.768 77L418.181 80.9883C418.181 80.9883 439.914 111.444 432.433 118.333C424.951 125.222 405.712 139 405.712 139C405.712 139 399.299 129.573 401.436 129.211C403.574 128.848 420.675 114.345 420.675 114.345L405.712 86.0643L411.768 77Z" fill="#D0CDE1"/>
<path d="M354.179 76L349.513 77.8105L337.308 99.8988L305 139.368C305 139.368 309.308 146.248 312.897 144.8C316.487 143.351 343.41 112.935 343.41 112.935L361 85.4147L354.179 76Z" fill="#D0CDE1"/>
<path d="M384.5 37C393.06 37 400 32.9706 400 28C400 23.0294 393.06 19 384.5 19C375.94 19 369 23.0294 369 28C369 32.9706 375.94 37 384.5 37Z" fill="#2F2E41"/>
<rect x="282" y="223" width="71" height="71" fill="#222F65"/>
<path fill-rule="evenodd" clip-rule="evenodd" d="M330.867 272.409C338.301 272.409 343 266.087 343 256.055C343 242.409 332.546 233 317.46 233C301.766 233 291 243.587 291 259.006C291 274.805 301.549 284.986 318.029 284.999C320.885 285.013 323.733 284.705 326.52 284.078C327.65 283.805 328.356 282.68 328.11 281.544C327.863 280.408 326.755 279.676 325.612 279.895C323.181 280.324 320.715 280.532 318.246 280.518C304.691 280.518 295.983 272.206 295.983 259.182C295.983 246.443 304.785 237.44 317.135 237.44C329.621 237.44 338.071 244.981 338.071 256.258C338.071 263.325 335.688 267.874 331.936 267.874C329.77 267.874 328.565 266.56 328.565 264.381V246.876H323.161V250.64H322.62C321.374 247.892 318.544 246.213 315.213 246.213C308.726 246.213 304.284 251.479 304.284 259.047C304.284 266.926 308.699 272.219 315.307 272.219C319.018 272.219 321.78 270.5 323.121 267.359H323.662C324.164 270.378 327.061 272.409 330.867 272.409ZM316.309 267.21C312.477 267.21 310.121 264.178 310.121 259.169C310.121 254.146 312.436 251.195 316.377 251.195C320.345 251.195 322.891 254.241 322.891 259.169C322.891 264.097 320.345 267.21 316.309 267.21Z" fill="white"/>
</svg>
